<svg width="430" height="190" viewBox="0 0 430 190" fill="none" xmlns="http://www.w3.org/2000/svg">
  <defs>
    <linearGradient id="c5-border" x1="0" y1="0" x2="430" y2="190" gradientUnits="userSpaceOnUse">
      <stop stop-color="#f59e0b" stop-opacity="0.4"/>
      <stop offset="1" stop-color="#d97706" stop-opacity="0.1"/>
    </linearGradient>
    <radialGradient id="c5-glow" cx="30" cy="30" r="150" gradientUnits="userSpaceOnUse">
      <stop stop-color="#f59e0b" stop-opacity="0.15" />
      <stop offset="1" stop-color="#f59e0b" stop-opacity="0" />
    </radialGradient>
  </defs>
  <rect width="430" height="190" rx="14" fill="#070709" stroke="url(#c5-border)" stroke-width="1.5" />
  <rect width="430" height="190" rx="14" fill="url(#c5-glow)" />

  <!-- Mock K-Means Cluster Diagram -->
  <g transform="translate(315, 40)" opacity="0.65">
    <rect width="90" height="70" rx="6" fill="#201502" stroke="#d97706" stroke-width="0.75" />
    <circle cx="20" cy="20" r="3" fill="#a855f7" />
    <circle cx="28" cy="15" r="3" fill="#a855f7" />
    <circle cx="15" cy="28" r="3" fill="#a855f7" />
    <circle cx="55" cy="50" r="3" fill="#f59e0b" />
    <circle cx="65" cy="45" r="3" fill="#f59e0b" />
    <circle cx="60" cy="58" r="3" fill="#f59e0b" />
    <circle cx="70" cy="22" r="3" fill="#06b6d4" />
    <circle cx="80" cy="18" r="3" fill="#06b6d4" />
    <circle cx="75" cy="30" r="3" fill="#06b6d4" />
    <text x="45" y="82" font-family="monospace" font-size="8" fill="#94a3b8" text-anchor="middle">K = 3 CLUSTERS</text>
  </g>

  <g transform="translate(24, 28)">
    <text x="0" y="10" font-family="'Space Grotesk', -apple-system, sans-serif" font-weight="600" font-size="10" fill="#f59e0b" letter-spacing="1.5">UNSUPERVISED CLUSTERING</text>
    <text x="0" y="32" font-family="'Space Grotesk', -apple-system, sans-serif" font-weight="700" font-size="18" fill="#ffffff">Iris K-Means</text>
    <path d="M 94,20 L 102,20 M 102,20 L 102,28 M 102,20 L 94,28" stroke="#94a3b8" stroke-width="1.5" stroke-linecap="round" />
    
    <text x="0" y="60" font-family="'Inter', -apple-system, sans-serif" font-weight="400" font-size="12" fill="#94a3b8">
      <tspan x="0" dy="0">Iris flower dataset clustering model utilizing unsupervised</tspan>
      <tspan x="0" dy="16">K-Means algorithms to classify species partitions.</tspan>
    </text>
    <g transform="translate(0, 95)">
      <rect width="45" height="18" rx="4" fill="#3c1e02" stroke="#d97706" stroke-width="1" />
      <text x="22.5" y="12" font-family="monospace" font-size="9" fill="#fbbf24" text-anchor="middle">K-MEANS</text>
    </g>
    <g transform="translate(55, 95)">
      <rect x="0" width="55" height="18" rx="4" fill="#0f172a" stroke="#1e293b" stroke-width="1" />
      <text x="27.5" y="12" font-family="'Inter', -apple-system, sans-serif" font-weight="600" font-size="9" fill="#94a3b8" text-anchor="middle">Clustering</text>
      <rect x="61" width="55" height="18" rx="4" fill="#0f172a" stroke="#1e293b" stroke-width="1" />
      <text x="88.5" y="12" font-family="'Inter', -apple-system, sans-serif" font-weight="600" font-size="9" fill="#94a3b8" text-anchor="middle">Scikit-Learn</text>
      <rect x="122" width="50" height="18" rx="4" fill="#0f172a" stroke="#1e293b" stroke-width="1" />
      <text x="147" y="12" font-family="'Inter', -apple-system, sans-serif" font-weight="600" font-size="9" fill="#94a3b8" text-anchor="middle">Matplotlib</text>
    </g>
  </g>
</svg>
